<?xml version="1.0" encoding="UTF-8" standalone="no"?>
<!DOCTYPE svg PUBLIC "-//W3C//DTD SVG 1.1//EN" "http://www.w3.org/Graphics/SVG/1.1/DTD/svg11.dtd">
<svg width="100%" height="100%" viewBox="0 0 512 512" version="1.1" xmlns="http://www.w3.org/2000/svg" xmlns:xlink="http://www.w3.org/1999/xlink" xml:space="preserve" xmlns:serif="http://www.serif.com/" style="fill-rule:evenodd;clip-rule:evenodd;stroke-linejoin:round;stroke-miterlimit:2;">
    <g transform="matrix(1.12281,0,0,1.12281,-62.8772,-53.8947)">
        <circle cx="284" cy="276" r="228" style="fill:rgb(18,40,58);"/>
    </g>
    <g transform="matrix(1.53868,0,0,1.53868,-25.3533,-149.732)">
        <path d="M282.459,207.611C293.39,188.764 297.16,174.441 297.16,163.887C297.16,158.233 295.652,153.71 293.767,149.563C289.998,141.271 284.344,140.14 277.559,148.81C262.482,168.787 230.066,226.458 205.942,274.328C185.211,276.213 165.987,281.113 142.24,284.505L182.572,211.003C191.618,194.418 195.011,179.718 195.011,169.164C195.011,162.756 193.88,157.856 191.618,153.71C187.472,146.548 181.818,145.417 175.787,153.333C159.956,175.949 125.655,238.52 102.285,287.144C98.139,287.144 95.878,286.39 90.224,286.013C80.046,285.259 77.785,287.898 81.554,295.059C83.062,297.698 86.077,302.221 93.616,306.367C77.785,343.684 74.015,354.992 74.015,365.923C74.015,374.592 77.031,381 80.423,385.523C84.947,391.931 91.731,390.046 94.37,383.639C105.301,359.515 116.232,335.391 127.163,312.775C144.125,312.775 168.249,308.252 191.618,305.237C185.587,317.675 180.687,330.114 178.049,337.276C174.656,347.453 173.149,354.992 173.149,360.646C173.149,368.938 176.164,374.592 179.557,379.869C183.703,386.654 190.111,384.769 192.749,378.738C205.188,351.222 217.627,325.591 229.689,301.844C236.096,301.844 241.373,302.221 247.027,302.975C254.189,304.106 256.828,301.09 255.697,296.19C254.189,290.159 250.043,283.751 242.127,279.605C250.42,264.528 258.712,249.827 282.459,207.611Z" style="fill:white;fill-rule:nonzero;"/>
        <path d="M232.704,387.408C241.75,390.8 254.189,384.015 258.712,372.707C263.236,361.776 260.22,350.845 251.174,347.83C241.75,344.438 230.066,350.468 224.788,362.153C220.265,371.577 223.658,384.015 232.704,387.408Z" style="fill:white;fill-rule:nonzero;"/>
    </g>
</svg>
